/* XPM */
static char *outastracoin64[] = {
/* columns rows colors chars-per-pixel */
"64 64 256 2 ",
"   c None",
".  c #05092A",
"X  c #050B35",
"o  c #050A39",
"O  c #0A133C",
"+  c #0D1B3D",
"@  c #0A1436",
"#  c #121C3B",
"$  c #121837",
"%  c #11192D",
"&  c #13243D",
"*  c #203134",
"=  c #28413C",
"-  c #010A45",
";  c #0B1443",
":  c #0D1C43",
">  c #071649",
",  c #121D42",
"<  c #111A48",
"1  c #051957",
"2  c #071454",
"3  c #122343",
"4  c #15264A",
"5  c #0B2558",
"6  c #132756",
"7  c #0E2348",
"8  c #253647",
"9  c #293C56",
"0  c #021B65",
"q  c #072867",
"w  c #143469",
"e  c #082B77",
"r  c #0B3778",
"t  c #0F326C",
"y  c #2D425A",
"u  c #32475B",
"i  c #39545B",
"p  c #304A47",
"a  c #0F427C",
"s  c #354A65",
"d  c #3B5268",
"f  c #3B4C77",
"g  c #395574",
"h  c #29436F",
"j  c #316D7A",
"k  c #435B78",
"l  c #41596E",
"z  c #496377",
"x  c #536876",
"c  c #093983",
"v  c #0E3688",
"b  c #3834AC",
"n  c #2F3A9A",
"m  c #4B30AF",
"M  c #4E319C",
"N  c #134988",
"B  c #195798",
"V  c #0D4B92",
"C  c #255C9A",
"Z  c #36488E",
"A  c #1A639C",
"S  c #306C95",
"D  c #1656AA",
"F  c #235DA9",
"G  c #2F50B2",
"H  c #1B66A4",
"J  c #116DAE",
"K  c #2566A7",
"L  c #2574AA",
"P  c #2C76B3",
"I  c #465090",
"U  c #566C88",
"Y  c #546E8C",
"T  c #667B95",
"R  c #637686",
"E  c #5A56B9",
"W  c #4E48B0",
"Q  c #6A55B7",
"!  c #6E6CB6",
"~  c #4B76B4",
"^  c #3C30CC",
"/  c #4C3AC9",
"(  c #3074C9",
")  c #1558C3",
"_  c #574BC8",
"`  c #5E58C7",
"'  c #5848D5",
"]  c #4E45CE",
"[  c #644AC9",
"{  c #635AC7",
"}  c #6857D9",
"|  c #7054D5",
" . c #6664C3",
".. c #7669C8",
"X. c #7867DA",
"o. c #7471D0",
"O. c #5848F1",
"+. c #6B59E7",
"@. c #725CE6",
"#. c #6C58F4",
"$. c #745CF6",
"%. c #664AF3",
"&. c #7B6AE3",
"*. c #7865E8",
"=. c #7A66F7",
"-. c #756DE3",
";. c #526DDB",
":. c #8675B7",
">. c #AB78BE",
",. c #887AC9",
"<. c #8879D8",
"1. c #8D6FCC",
"2. c #A878C7",
"3. c #A972C9",
"4. c #836AE9",
"5. c #8676E8",
"6. c #957BEC",
"7. c #846BF9",
"8. c #8877F8",
"9. c #9379F8",
"0. c #976BE5",
"q. c #8D62DF",
"w. c #2884B7",
"e. c #348BBC",
"r. c #778999",
"t. c #758C97",
"y. c #758BA7",
"u. c #7B92A9",
"i. c #748EB3",
"p. c #5A98AA",
"a. c #3693C8",
"s. c #3AA6CE",
"d. c #39A9E5",
"f. c #4487CA",
"g. c #5196D0",
"h. c #7190CD",
"j. c #4AA8CB",
"k. c #58A9D7",
"l. c #57B9D8",
"z. c #4BB0D3",
"x. c #67B7DA",
"c. c #6FAFD5",
"v. c #53AAEC",
"b. c #6FB2EA",
"n. c #5B96EF",
"m. c #71CCD9",
"M. c #79C9E4",
"N. c #73CBF3",
"B. c #61D1EB",
"V. c #87949C",
"C. c #92A49C",
"Z. c #8899A7",
"A. c #8D98B1",
"S. c #95A2AC",
"D. c #98A7B5",
"F. c #92ABB2",
"G. c #A7BAB8",
"H. c #A7B2AD",
"J. c #BBA8AB",
"K. c #C695BA",
"L. c #DAA9AC",
"P. c #B6C5BC",
"I. c #DCD2BA",
"U. c #8B88C9",
"Y. c #9588C6",
"T. c #9999C9",
"R. c #8A89D7",
"E. c #978AD6",
"W. c #9795D6",
"Q. c #8D96D3",
"!. c #AA95D2",
"~. c #96A9C3",
"^. c #94B1D1",
"/. c #A5A9C7",
"(. c #ABB8C5",
"). c #A7A8D8",
"_. c #B9A8D8",
"`. c #A8BBD5",
"'. c #B5B7D7",
"]. c #B8B3CA",
"[. c #8C84E8",
"{. c #9488E8",
"}. c #9997E7",
"|. c #9687F7",
" X c #9A97F4",
".X c #8D85F1",
"XX c #A59AEA",
"oX c #A789FA",
"OX c #A69AF5",
"+X c #B396ED",
"@X c #96B1E8",
"#X c #A9A5E8",
"$X c #B7A8E6",
"%X c #B6B9E8",
"&X c #AAA6F6",
"*X c #B4ABF8",
"=X c #BAB6F6",
"-X c #ACB4E9",
";X c #CDAFCD",
":X c #C4BAF6",
">X c #CAAFEE",
",X c #E7BAFC",
"<X c #E7B5ED",
"1X c #C29ACA",
"2X c #90CDD6",
"3X c #B9C7D6",
"4X c #B0CCD1",
"5X c #87D6EB",
"6X c #89D5F9",
"7X c #97D9FB",
"8X c #8FCDEE",
"9X c #BAC5E7",
"0X c #BAD9EB",
"qX c #BBC6F5",
"wX c #A3D9F8",
"eX c #B5D9F3",
"rX c #A5CDEA",
"tX c #98E5FB",
"yX c #8BE9F6",
"uX c #A6E8FB",
"iX c #B6E9F9",
"pX c #A7F8FF",
"aX c #B9F7FA",
"sX c #B1EDEB",
"dX c #DAC9CC",
"fX c #D7C9D7",
"gX c #CAD0D3",
"hX c #E9DADA",
"jX c #EAD0D0",
"kX c #CDE4D6",
"lX c #F0E7DA",
"zX c #C8CBEA",
"xX c #C7D6E8",
"cX c #D7D6E6",
"vX c #C5C4FA",
"bX c #CBCBFA",
"nX c #C8C7F7",
"mX c #D2CCFC",
"MX c #D4C8F5",
"NX c #DCD2FD",
"BX c #D5D3FD",
"VX c #CED3F5",
"CX c #E7D9FD",
"ZX c #F2D0F2",
"AX c #DAE5FB",
"SX c #C9F9FA",
"DX c #D6F4F4",
"FX c #D0E8E9",
"GX c #EAE8E8",
"HX c #F4EDEA",
"JX c #E7E6FB",
"KX c #F6E9FD",
"LX c #E8FAF9",
"PX c #FDFDFD",
"IX c #F8F6F9",
"UX c #EEF8EB",
/* pixels */
"                                                          & u s u y 8                                                           ",
"                                                y U r.Z.~.^./.~.~.~.~.F.y.T U s                                                 ",
"                                          d r.~.3X3X9X9X%X%X%X$X).).`.(.P.G.G.~.i.T l                                           ",
"                                    4 U /.0XxXzXnXMXbXvX%X:X%X=X=X-X&X#X'.gX4X).W.~.Q.u.Y 9                                     ",
"                                  T `.xXzXnXbXmXNXNXMXvX%X#X#X).#X).#X#X}.#X'.&X#XXX{.R.U.A.Y y                                 ",
"                              U (.xXzXnXmXNXNXNXbXmXNX=X).MXAXAXAXFX>XW.}.}.{.XX&X#X&XOX{.h.U.u.z                               ",
"                          7 u.xXzXVXNXBXNXmXnXnXMXMX:X>XJXuXk.a.a.b.uXLX!.R.}.}.}.W. XXX#X}.[...i.y.8                           ",
"                        y 4XcXzXVXBXMXmXmXmXMXnXbX:X:XDXj.V L k.b.a.) k.LX!.R.T.E.}.}.}.{.}. X X5.! y.l                         ",
"                      I 3XxXbXCXJXBXbXnXnXnXvXvXnX:XSXa.V x.xX9X%X0X7XD a.LXY.,.R.E.{.{.{.{.{.{. X.X .i.Y                       ",
"                    Y xXxXbXBXVXBXCXJXnX:XnXvXqX:XFXl.V j.xXY.,.,.:.3X7XV 5XcX..R.R.{.{..X{.E.[.{.{.9. .T Y                     ",
"                  Y kX0XnXbXnXnXnXmXCXJXvX:X9XvX>XsXw.w.2X>.U.W.Q.U.! 9Xj.J FX,.o.R..X{..XR.E.[.5.R..X8.o.V.Y                   ",
"                I xXzXbXVXbXbXnXvXmXmXNXBX%X:X=X:XrXJ j.).U.Q.Y.W.E.o.!.x.J 8XW.o.R.{..X|.[.[.[.<.5..X|.5.F.V.I                 ",
"              9 0XxXbXBXbXbXbXbXbXBXNXNXmX=X:X-XzXeXJ l.).,.E.Q.R.E.<.E.c.J 5X!.o.[..X.X|..X|.5.[.5..X|.X.&.A.r.g               ",
"            # 4XzXqXVXvXvXqXbXqXvXbXvXmXnX*X=X-X$XiXJ k.'.! U.R.[.R.<.Q.s.J 2XE.X.R..X5..X|..X<.5.5.8.5.[.X.} Y t.y             ",
"            i.cXzXbXbXvXvXvXqXqX:X:X:X:X:X&X*X&X+XeXw.K uX:. .U.R.o.1.2XH K c.:.<.&.5.5.5.8.4.X.&.&.&.5.5.8.5._ Z Y             ",
"          g xX9XnXnXnX:XzX9X=X:XnXMXzXMXMX%X'.%X=X^.C 2 n.SXA.1.:.W.wXe.1 N i.1.,.<.<.E.<.<.<.,.,.o.-.&.&.4.8.5.} I z           ",
"          `.gXnXbXbXbXbXbX%XFXLXaXaXiXiXuXiXuXuX6X~ 6 , 1 f.7X7X8X8XP 2 < q ;.N.wXuXuXuXuXwXwXwXSXGXo.+.-.&.&.<.=.] Y 8         ",
"        Y xXkXIXIXIXJXJXJXKXaXj.K B C B F B C F N q 2 ; O 2 v P F e o 3 , 6 V N F C F C C F C V a.sXE.} X.*.*...8.+.W z         ",
"        `.xXxXPXPXPXPXPXJXKXsXV - o - o X . o o . O ; O - O . . . O : & , , % % @ O : o - - - o c N.E.[ X.-.*.X.&.7._ U 8       ",
"      U xX9XmXLXPXPXPXPXPXKXDX5Xk.x.k.g.a.) 6 @ X o o X O O O O . O 3 & # & + + # , q ( k.k.k.k.5XDX! ' @.X.X.*.*.7.} Z l       ",
"      ~.3X9XbXLXPXPXPXPXPXHXGXIXLXLXLXDXAXQ.w : X X X ; O ; 7 6 n 1 < 7 3 3 + & 3 6 I @XeXFX0X@X9X/.E } X.*.*.X.*.&.=.] U       ",
"    u 3X9XxXqXIXPXPXPXPXPXIXUXhXcXhXfX;XfXh.t : > O 5 > ; : t Y n.V & 7 4 4 5 $ 3 t g.K.K.K.2.b m m } } } +.@.*.X.X.4.O.Z i     ",
"    T xX9XqXqXJXIXIXKXIXIXIXIXIXUXHXGXhXiXL 6 4 < G G & : 6 H h.3Xv.5 & 4 8 P ) % 6 d.aXK.1X!.{  .X.| X.X.=.X.*.@.+.=.#.W d     ",
"    D.3X3X9XqXAXLXKXCXKXCXIXIXIXIXIXHXDXs.q 6 t a.eXU 5 3 r z.4X;XtXB + 5 g S.B.L @ 6 B.DXI.<XX.} 5.<.5.<.8.4.5.7.=.#.=.] I     ",
"  8 4X3X9X9X%XAXJXJXCXCXCXIXIXKXIXHXIXz.e 4 t s.DXP.K 6 7 L 5XdX;XFXz.> 3 J 4XjXyXH @ q N.UXdX$XX.*.*.4.X.&.8.7.5.8.7.4.O.W p   ",
"  k 4X`.9X%XrXBXJXAXCXCXCXKXKXPXIXIXB.c 3 6 a.sXjX^.A 4 w s.kXgXgXlX5Xe + L tXL.kXN.r . r pXcX3.*X*X6.@.*.&.8.&.4.7.5.6.+.Z i   ",
"  T 3X4X9X9X-XqXJXAXCXNXCXKXKXIXIXuXJ ; , H yXhXdXl.N 3 N m.gXgXgXdXSXL @ a 5XgXK.FXv.2 X J SX1.4.+X>XOX5.*.*.*.} $.$.$.$.^ s   ",
"  y.4X4X%X%XrXbXAXBXCXNXCXKXKXKXUXs.0 $ r l.3X;X4Xs.w 7 w.2XdXgXGXfXUXz.1 7 l.kXK.K.pXV + > M.0X[ 6.9.oX>XOX{.oX#X'.$XXX#X! g   ",
"9 Z.(.4X3X-X).qXqX-X*X*X=XBXmXMXM.A ; < P 5X;XfX5XL 7 t s.kXhXGXHXHXlX5Xa + A aX;X>.xXx.- $ V uX1.| 6.9..XoXoX+X+X=XkXI.gXC.g % ",
"s A.G.4X4X4X%X#X}.@X}.}. X*X*XeXs.5 O t l.gX;X3Xl.a : A m.dXfXGXGXHXhXSXw.@ q N.dX2.J.7Xc + - x.9X[ 5.9.5.=.8.9.8.7.=.).P.Z.g 8 ",
"k A.4X4XG.4XP.3X-X}.W.W. X*X&X8Xw.> O A M.].1XrXe.7 7 w.sX1XgXHXJXCX<XGXl.5 + j.xX>.2.eXa.- O H eX[ X.4.7.&.=.5.8.8.7.7.(.Z.d y ",
"I S.G.`.%X-X$XzX:X&XXXQ.}.&X*X5XN X 2 e.rX_.;Xm.A + r l.3X].cXIXUXIXJXjX7XV @ N wX!.1.'.x.1 % e 5X1.} 4.*.=.&.=.7.7.*.=.`.C.d y ",
"U A.G.%X=X*X*X*X*X:X=X-X XoXqXm.q @ q z.'.!.4Xz.q , H m._._.cXUXPXPXPXhXSXa.O 5 m.zX>.1XM.r O 2 x.W./ *.@.} =.=.#.=.$.=.4XC.d y ",
"g Z.G.).*X:X*X=X*X=XqXvXmX:XqXj.0 X r m.'.!.M.P < 1 s.4X!.>XcXPXPXPXIXHXHXM.q O w.iXK.1X8XB O - j.@Xm +.+.+.#.*.-.+.#.+.(.u.s 9 ",
"s u.G.-X*X:X*X-X*X*X=X&XqXNXqXe.2 X N x.!.).l.N , v l./._.!.zXPXPXPXIXUXlXsXA + r yX;XK.2XF O - e.3X2.>X9.=.8.9.8.8.#.} G.u.g 8 ",
"9 u.G.-X*X*X*X&X*X*X&X&X*XnXSXP > O V M.!.^.a.6 < L M.!.).#XMXPXPXPXPXIXhXDXz.> : j.DXL.8XA ; ; P rX3.>XOX.X8.=.8.8.#.} (.t.g % ",
"  r.H.).&X=X&X*X&X&X&X&X&X=XeXe.- O N b._.j.B < 6 z.`.E.).#XbXPXPXPXPXIXHXlX5Xr # B yXI.5XB < ; L 8X3.+X6.6.oX9.=.=.} } (.t.s   ",
"  U ~.^.*X*X&X&XOXOX&X&X&X&XiXe.2 @ w b.`.K w , N l.T.W.#X XnXPXPXPXIXIXIXhXaXP : 7 d.kXi.a 4 : L rX3.1X6.4.9.oX X=.' ' (.R y   ",
"  g D.).&X&X#X&X&X X X}.@X#X0Xf.2 @ 6 n.g.w 7 7 A h.1.E.XX6.>XPXIXPXPXIXHXlXFXw.7 & D N.x q 4 7 w.rX!.6.0.$.7.$.|.=./ ' D.x 9   ",
"  8 F.T.&X&XOX&X X&X XQ.}.XX0Xk.2 o @ G h 7 7 7 N ~.'.)._.XX$XZXcXGXhXGXlXUX^.a 6 & 6 D 9 4 3 5 e.4XL.$XoXoX+XoX&X X .o.u.z 8   ",
"    y.~.XX&XOXOX X X}.}.Q. XqXM.0 X > 7 7 7 : + w v.yXpXpXuX6Xb.6X6X@XN.7XN.F 6 < , & : 7 7 & 6 s.3XjXHXIXPXPXPXUXlXP.P.t.g     ",
"    Y F.}.&XXX}.}. X}.R.Q..X#X7Xa X O O : + + + & q c c N N c e v e v v v r 5 , @ , 3 # & + + t l.gXdXcXZXZXKXZXKXFXP.F.j u     ",
"    9 A.S.`.XX X}. X}.R.[.@X[.eXL o @ O O : 7 7 e r r t r a a e e e e e e e e v q 3 3 : + + : A m.dXhX<XZX,XZXZXZXcX4Xp.k 8     ",
"      y.V.F.(.).}..X[.Q.Q. X-.rXx.- O O : 7 5 L N.tXtXtXtXtXpXtX6X6X6X6X7X7X7XN.v.N & 3 + + 7 w.2XdXfX<X<X,X,X,XCXcXF.w.g       ",
"      k A.Z.H.G.G.).R.o.Q. X&.A.uXN O O O 6 H c.].'.'.3XlXjX]./.!._./.Y.Y.Y.Y.>.@Xv.5 3 # , w l.gXjXjX<X,X,X,X,XMXGXi.j u       ",
"        u.u.F.F.F.P.^.@Xh.[.R.Q rXk.o o o w e.! .. . .o.4X3XE.U.,.1.1.E.1.[ [ [ 1.f.a O o < H m.>.!.+X6.oXoXoXoX|.0Xp.g &       ",
"        z Z.r.D.F.F.G.2X@X.Xo.! h.c.5 . X 5 g.! W  .` o.2X`.}.{.{.E.[.{.XXE.<.[ Q L w o X 6 P o.q.<.0.*.7.7.7.9.8.c.j u         ",
"          i.r.Z.F.F.F.m.2X2X<.! ! e.w X X o ( aX! / } -.9X&X.X{..X5.5..X6.|.0.!.@XB < o o 5 f...| <.4.$.7.$.$.7.$.~ z *         ",
"          s u.T S.S.F.F.F.4X[.{ h.j.2 X X O - ( pX).m | >XOX8.6.8.8.5.7.@.q.#XyXP 2 ; o X - k.@Xm | +.%.%.#.#.$.^ Z i           ",
"            Y y.r.S.S.S.H.(.6.| m.L ; O o X . o D 6XuX#X>XE.X.| | X.4.6.#XwXx.V > < X o o o C 8Xm ' %.@.#.@.$.%.b l             ",
"              y.R r.Z.Z.S.G.4.o.l.q @ o 6 ) n X . 0 ( b.7XuXwXrXrXwXwX8Xx.K 1 : ; 0 G ) < $ 0 5X1.^ ' ' O.O.O.^ k *             ",
"              9 y.U u.A.C.S.q.c.a.- o q F h.6Xv.c o . 2 v F ( f.f.( F r - X o 0 P M.h.n.D o o a.9XQ q.4./.~.! d p               ",
"                s r.U r.S.Z.X.sXl.B H B.c.W U.0XwXv.F v - - o - o - - - q V f.5X0XY.M !.pXH D z.SXY.0.+XoXR.x i                 ",
"                  k T U u.Z.R.UXDXuXaXLX:._ W W Y.9XeX6Xv.n.g.~ ~ g.g.b.8X7X-XY.m m / Q cXSXuXDXsXi.q.6.%.b y                   ",
"                    k T x y.<. .! ! ! E E Q  . .W W { A.kX@X@X8X8X@X@X`.U.Q m m _ [ | [ [ ..! Q Q 1.=./ f i                     ",
"                      s R U {  .Q E E E E  .`  .` ` / A.J.V.Q M b M M m m m _ Q { } } { %.| | { X.%.^ f i                       ",
"                        y T I W  .! Q E  .!  .`  .` _ /.J.H.J.S.! / / W [ { [ { } } +.} +.*.=.@.' b d =                         ",
"                            z Y I W  . .! ` E  .{ ` _ /.gXH.D.H.H.S...[ / [ [ } +.{ +.=.=.#.O.^ n i =                           ",
"                              s z I Z W `  . .` { { _ /.P.H.S.S.V.C.H.A.X./ _ } @.@.*.+.O./ b s p                               ",
"                                  l z I Z b E ` ;. ._ /.G.D.S.S.S.V.V.C.H.A.<.#.%.O.O.^ n f i                                   ",
"                                      i l f I n m ] ] ~.G.D.S.A.Z.Z.Z.V.r.t.V.T W b Z s p *                                     ",
"                                          u i d g Z n Y T R R R U x k k l l d i i u p                                           ",
"                                                8 u y y s y u u 9 9 y u u u 9 8                                                 ",
"                                                        8 9 u u u s y 8                                                         "
};
