/* XPM */
static char *outastracoin32[] = {
/* columns rows colors chars-per-pixel */
"32 32 236 2 ",
"   c None",
".  c #01011C",
"X  c #000016",
"o  c #00022C",
"O  c #010626",
"+  c #000134",
"@  c #030D33",
"#  c #01033B",
"$  c #040A36",
"%  c #061537",
"&  c #0A122F",
"*  c #18283C",
"=  c #192C33",
"-  c #284B3D",
";  c #010948",
":  c #001546",
">  c #001655",
",  c #04264E",
"<  c #172942",
"1  c #012552",
"2  c #03285A",
"3  c #1A344D",
"4  c #253A53",
"5  c #273956",
"6  c #232B4B",
"7  c #042E65",
"8  c #053568",
"9  c #143671",
"0  c #293D65",
"q  c #2C4256",
"w  c #354C5D",
"e  c #314658",
"r  c #3C505D",
"t  c #2C4D4E",
"y  c #0A4E7C",
"u  c #134674",
"i  c #1A4B76",
"p  c #384D70",
"a  c #3C627B",
"s  c #445769",
"d  c #4B5F71",
"f  c #5A717D",
"g  c #516877",
"h  c #6E897F",
"j  c #393CA5",
"k  c #5034BA",
"l  c #164F82",
"z  c #0F588A",
"x  c #1F5888",
"c  c #1D4697",
"v  c #295987",
"b  c #265993",
"n  c #344C89",
"m  c #1E6093",
"M  c #276588",
"N  c #296298",
"B  c #346996",
"V  c #316B90",
"C  c #3257A7",
"Z  c #3B6AA6",
"A  c #3777A5",
"S  c #3E6BB4",
"D  c #2C70A9",
"F  c #4B5796",
"G  c #566C87",
"H  c #456E9B",
"J  c #45749C",
"K  c #5F748F",
"L  c #65778B",
"P  c #677B96",
"I  c #4248A6",
"U  c #5A56BB",
"Y  c #5147BB",
"T  c #6448BC",
"R  c #4C7AA4",
"E  c #5477B2",
"W  c #6C6AB0",
"Q  c #4D34C9",
"!  c #4B4AC8",
"~  c #5C4BCB",
"^  c #5B55CB",
"/  c #5149D8",
"(  c #674DD5",
")  c #5E62C9",
"_  c #7867DC",
"`  c #716ECA",
"'  c #5944F0",
"]  c #6A58E5",
"[  c #735EE7",
"{  c #6547FF",
"}  c #6856F7",
"|  c #755BFC",
" . c #754FE1",
".. c #7A68EB",
"X. c #7A65F7",
"o. c #7F7FEC",
"O. c #935DD9",
"+. c #8578CA",
"@. c #8678D8",
"#. c #967EDE",
"$. c #936BCF",
"%. c #835CFF",
"&. c #866AEA",
"*. c #9569EB",
"=. c #8675E8",
"-. c #836BFD",
";. c #8877F9",
":. c #937BF6",
">. c #A77DEC",
",. c #AA6CFF",
"<. c #2E8FB4",
"1. c #53939E",
"2. c #6D8495",
"3. c #4883A7",
"4. c #5687AA",
"5. c #5A89B9",
"6. c #5591B5",
"7. c #6E86A3",
"8. c #7A92A9",
"9. c #6397B7",
"0. c #6C8AB0",
"q. c #73ACBD",
"w. c #3DAECC",
"e. c #5582C8",
"r. c #5196C7",
"t. c #7E8AC6",
"y. c #6998C9",
"u. c #739BC8",
"i. c #7A86D6",
"p. c #6C9DD7",
"a. c #7490D1",
"s. c #4FAFCF",
"d. c #69A7C9",
"f. c #76A5C9",
"g. c #79B9D3",
"h. c #6FB3C7",
"j. c #6F8AED",
"k. c #7EB5E1",
"l. c #7CC5D4",
"z. c #64C0E8",
"x. c #9B989E",
"c. c #8890AD",
"v. c #A69BB7",
"b. c #93A7A9",
"n. c #97A7B7",
"m. c #91A7AA",
"M. c #A8BBAC",
"N. c #A4B1B3",
"B. c #B1C8B8",
"V. c #C4C5A7",
"C. c #8A86D9",
"Z. c #9686DC",
"A. c #979EDB",
"S. c #8E8BCC",
"D. c #AA9CD4",
"F. c #AC99D7",
"G. c #9CACC8",
"H. c #83B7C8",
"J. c #85AAD6",
"K. c #87B9D9",
"L. c #9EA0D1",
"P. c #A8A6D9",
"I. c #B5BEDE",
"U. c #A7B5CA",
"Y. c #8A88E4",
"T. c #9385ED",
"R. c #9588E7",
"E. c #8F94E7",
"W. c #9A99E7",
"Q. c #9D8AFC",
"!. c #9784F6",
"~. c #9A93F1",
"^. c #A39CE9",
"/. c #A189FA",
"(. c #A498F9",
"). c #B19AFB",
"_. c #87B9E6",
"`. c #9CBCE7",
"'. c #9FA5F9",
"]. c #8EA3EC",
"[. c #A5A9E9",
"{. c #B4AAE6",
"}. c #AFBBE6",
"|. c #ABA7F6",
" X c #B3ABFF",
".X c #B9ACF9",
"XX c #BBB1FE",
"oX c #B8B6F6",
"OX c #B4B5EB",
"+X c #C89AFE",
"@X c #C79AEB",
"#X c #C8BAF9",
"$X c #CFACE5",
"%X c #8ED3CA",
"&X c #96C9D8",
"*X c #B5C9CB",
"=X c #AAC6D3",
"-X c #B6C4D7",
";X c #BAD4D8",
":X c #A9C1C4",
">X c #B3EADF",
",X c #98C3FB",
"<X c #A9C1E5",
"1X c #B8C6EA",
"2X c #B7C6F6",
"3X c #ADD2FE",
"4X c #BED7F8",
"5X c #B5CDF4",
"6X c #B1ECF6",
"7X c #CCCCD6",
"8X c #FFD3DF",
"9X c #FEEADF",
"0X c #C7DCE5",
"qX c #C6C7F9",
"wX c #D5C9FB",
"eX c #CBD4F8",
"rX c #D9DAFF",
"tX c #D7D3FB",
"yX c #C5C8E8",
"uX c #F2C2EC",
"iX c #E2D6FF",
"pX c #E4DCFE",
"aX c #E5D7F4",
"sX c #F9D2F5",
"dX c #DAE6FF",
"fX c #CCEBEF",
"gX c #FDE9E9",
"hX c #FCF2E9",
"jX c #E5E4FE",
"kX c #EBE3FF",
"lX c #EAE9F9",
"zX c #F9EBFB",
"xX c #E7FCFE",
"cX c #FFFFFF",
"vX c #F9F6FA",
"bX c #E3F1E7",
/* pixels */
"                          d f P P f r                           ",
"                    L U.yXrXwX#XoXOX0X-XS.G                     ",
"                8.eXzXpXpXwXwX2XOX#X^.{. X XW.G                 ",
"            s ;XvXiXeXwXwXwXd.s.z.g.{.Z.W.^.(.(.t.e             ",
"          G jXkXpXeXqX#XtXs.<.P.P.r.g.D.@.E.E.R.Q.E.r           ",
"        g xXrXqXwXpXqX#X`.<.L.$.+.D.s.J.@.T.T.Y.Y.!.A.g         ",
"      w jXrXqXqXqXwX#X.X`.s.L.+.@.Z.s.u.O.!.;.;...;.T.t.t       ",
"      1XrX2XOXwXjXjXrXtX5XN k.P.|.p.z a.^.~.(.~.Z...X.X.W       ",
"    2.cXrXrXaX&XR R 0.d.H + 9 y.5.2 # S d.5.R B H.Y...=.X.p     ",
"    5XvXcXcXcXl.l l 9 + . @ o O . & * O o > m v l.C.( _ -.)     ",
"  L dXdXcXcXvXhXxXcX3X: . : $ 9 c & * o % J.aX[.` ^ [ ] X.X.w   ",
"  G.eXeXvXzXvXvXhXcXR ; ) s : f.3X2 6 r.7 9.gX$.Q _ =.&...| I   ",
"  ;X1XqXlXpXkXcXcXd.+ 9.xX9 y fXvXM 8 xXH.; %XaX:.=...&.X.%./   ",
"s 0X}.2XjXiXkXcX6X; u xX=X> 1.bXhXH.> =XgXV ; <X>.).!.=.R.{.=.< ",
"K ;X*X}.[.^.XXdXA o g.zX3.1 &X9XhXdX2 3.uX`.$ J W.&.Q.Q.(.7XB.q ",
"2.-X-XI.[.C./.,X, 8 yX5X8 y 0XaXvXvXV 8 OX#Xi , E. ...X.X.-.n.w ",
"P -XXX X#XoX#X_.# B tXy.; 6.$XlXcXcX&X; f.uXR # y. .] ..} -.n.w ",
"f -XXX.X|. XjXf.# 4.4Xx 7 &XF.jXcXvXxX7 M cX0.; 9.$X!.-.X...n.q ",
"r -X X|.|.'.qXf.o 5._.> V [.R.kXcXcXcX9.> 6X8.# 5.@X*.-.X.] m.* ",
"  G. X|.(.W. X_.+ n v o 6.eXXXjXcXcXcXq.+ N p % q.$X!.Q.T._ 7.  ",
"  8. X(.~.E.W._.1 O % O 8 3.3.C C Z Z > . % & > H.9XzXvXhX*Xa   ",
"  d -XP.~.C.Y.2Xv X @ 0 4.R 3.A Z N Z 4.b & . u >XsXsXsXvXq.3   ",
"    m.N.U.A.=.Z.d.o : e.[.}.bXyX{.P.[.#.j.2 O <.7X@X).+XrX1.    ",
"    d G.n.%X&X` y., @ p.@.Q [.:.o.&.*.>.5.@ : e.O.&.| X.j.t     ",
"      7.n.m.:XT.E % . 1 y.'.#X/.!./.|.f.1 . o y.( ' { { C       ",
"      4 8.b.v.].z O S H 2 x R 5.) R u 1 v e.; v E. .Q.) =       ",
"        q 8.c.}.g.g.i.Y.K.H c b V M H 0.@.@.K.h.=X,.Y.-         ",
"          w 2._ S.+.U Y ~ A.;Xa.` i.C.T Q ( =.#.[ / 6           ",
"            e F U ~ ` ` / W V.x.W k Q / _ X.} ' I -             ",
"                s F U ^ / S.7XN.M.N.S...{ { ! 0                 ",
"                    5 n C W m.2.L L h G n 5                     ",
"                          < 4 q q 4 <                           "
};
