/* XPM */
static char *outastracoin16[] = {
/* columns rows colors chars-per-pixel */
"16 16 192 2 ",
"   c None",
".  c #000024",
"X  c #020823",
"o  c #001326",
"O  c #010931",
"+  c #070B33",
"@  c #070C30",
"#  c #001C39",
"$  c #0B2A3C",
"%  c #0E2945",
"&  c #0C234F",
"*  c #152E4F",
"=  c #132D54",
"-  c #14295A",
";  c #152C5A",
":  c #232F5B",
">  c #243459",
",  c #223959",
"<  c #293E5F",
"1  c #0E3F69",
"2  c #253A6D",
"3  c #36405E",
"4  c #17416D",
"5  c #1C496F",
"6  c #1D457D",
"7  c #204C6D",
"8  c #254275",
"9  c #2C4974",
"0  c #2A4878",
"q  c #3D497D",
"w  c #2D5475",
"e  c #315A77",
"r  c #365C79",
"t  c #425367",
"y  c #45576D",
"u  c #475C6D",
"i  c #485C6A",
"p  c #59726D",
"a  c #204984",
"s  c #3F588C",
"d  c #346A91",
"f  c #3359A8",
"g  c #4B4F8E",
"h  c #40499F",
"j  c #42628D",
"k  c #5C7082",
"l  c #476692",
"z  c #466B97",
"x  c #5C7792",
"c  c #68798E",
"v  c #6F7E98",
"b  c #5555A7",
"n  c #5A54A0",
"m  c #4C65A0",
"M  c #4871A5",
"N  c #467DA4",
"B  c #5575A7",
"V  c #5E72AC",
"C  c #4E73B2",
"Z  c #497BB0",
"A  c #6C72A4",
"S  c #4F44CF",
"D  c #5A42C6",
"F  c #6558CD",
"G  c #6761CE",
"H  c #6873D2",
"J  c #7079D0",
"K  c #7275DD",
"L  c #6C4FFA",
"P  c #6D57FF",
"I  c #7F5AFE",
"U  c #795EFF",
"Y  c #7C6DE6",
"T  c #7560E8",
"R  c #7C63EA",
"E  c #7E7AE2",
"W  c #7762FF",
"Q  c #895EFF",
"!  c #9478E1",
"~  c #917DED",
"^  c #8563FE",
"/  c #8A7DF1",
"(  c #8872FF",
")  c #937BF6",
"_  c #57819E",
"`  c #5F819F",
"'  c #758A92",
"]  c #778B9C",
"[  c #5280A4",
"{  c #5092AD",
"}  c #5B90AC",
"|  c #7C89A1",
" . c #7D92A8",
".. c #7F98AE",
"X. c #618FB6",
"o. c #6186BB",
"O. c #748DBF",
"+. c #6390B6",
"@. c #6099B5",
"#. c #4F90C9",
"$. c #7C89C2",
"%. c #7B94CB",
"&. c #73A2CF",
"*. c #68AADC",
"=. c #7AADD4",
"-. c #7FBCE0",
";. c #899CA1",
":. c #8587B2",
">. c #958EBB",
",. c #9299B2",
"<. c #8DA2B1",
"1. c #85A8B3",
"2. c #94A3B9",
"3. c #98AEB8",
"4. c #92B2BF",
"5. c #A5BFB7",
"6. c #898ACD",
"7. c #859BC5",
"8. c #8C97C8",
"9. c #9E9CC3",
"0. c #8A8EDA",
"q. c #819CD6",
"w. c #8F97DB",
"e. c #A99BCD",
"r. c #88A2CE",
"t. c #A2B2CF",
"y. c #ACA6D0",
"u. c #8B81E9",
"i. c #9E84ED",
"p. c #849BE8",
"a. c #9389F7",
"s. c #9B87F8",
"d. c #9489FE",
"f. c #9B91FF",
"g. c #919DFA",
"h. c #B68FFF",
"j. c #BC8CFF",
"k. c #A495FF",
"l. c #A991FF",
"z. c #A994FF",
"x. c #A79EFF",
"c. c #B099FF",
"v. c #93A8F6",
"b. c #9CADFF",
"n. c #BAB6ED",
"m. c #ADA0F3",
"M. c #A6ADF2",
"N. c #B2A6FF",
"B. c #B5A9F8",
"V. c #B8AAFE",
"C. c #B9AFFF",
"Z. c #ABB8FF",
"A. c #C09EFF",
"S. c #C6B9FF",
"D. c #C7B9FF",
"F. c #C8BAFC",
"G. c #CCBDFD",
"H. c #ABC1CF",
"J. c #ADCADC",
"K. c #9DC8F3",
"L. c #ABC2EA",
"P. c #B7D2E5",
"I. c #A2CDFA",
"U. c #DCDFC6",
"Y. c #C2C8D8",
"T. c #D0D6D9",
"R. c #C5C3E9",
"E. c #C1CDE8",
"W. c #CAD6E4",
"Q. c #C3C7F7",
"!. c #CFCAF5",
"~. c #CAC9FE",
"^. c #D2C7FD",
"/. c #DED5FE",
"(. c #E0C6FF",
"). c #E0DDFF",
"_. c #D3E7E3",
"`. c #D3EAEE",
"'. c #D3E9FD",
"]. c #F6EFF1",
"[. c #F1E1FF",
"{. c #F4E2FF",
"}. c #F5EBFF",
"|. c #FBEBFF",
" X c #E8F3F6",
".X c #EBF1FF",
"XX c #EEF6FC",
"oX c #FEFFF7",
"OX c #F4F5FF",
"+X c #F2FFFF",
"@X c #FFFDFF",
"#X c white",
/* pixels */
"            ,.y.9.|             ",
"        Y.}.{.K.I.S.B.6.        ",
"     .OX|.(.-.o.q.=.! l.k.u     ",
"    .X~.!.).*.w.0.#.x.u.) f.    ",
"  W.#XP.N l @ - = + s { %.Q G   ",
"  +X@XoX X8 X 2 9 o r R.F T U > ",
"] './.#X..` X.4.H.+.1.A h.~ z.g ",
"3.E.m.M.1 t.d T.].z e.5 E ^ V.' ",
"2.F.G.$.j &.a [.#X_ r.x b I W c ",
"v D.C.7.0 4 m ^.XX<.7 w :.A.d.y ",
"  Q.s.v.% . } @.Z M O # _.@X`.$ ",
"  ;.J.b.: & Z.n.i.N.; * c.j.O.  ",
"    5.L.6 < C H J B , e ( P     ",
"    t 8.p.K V [ f h Y g.a.3     ",
"        n S / U.>.R L D         ",
"            q k p i             "
};
